<?xml version="1.0" standalone="no"?>
<!DOCTYPE svg PUBLIC "-//W3C//DTD SVG 20010904//EN"
 "http://www.w3.org/TR/2001/REC-SVG-20010904/DTD/svg10.dtd">
<svg version="1.0" xmlns="http://www.w3.org/2000/svg"
 width="2048.000000pt" height="2048.000000pt" viewBox="0 0 2048.000000 2048.000000"
 preserveAspectRatio="xMidYMid meet">
<metadata>
Created by potrace 1.14, written by Peter Selinger 2001-2017
</metadata>
<g transform="translate(0.000000,2048.000000) scale(0.100000,-0.100000)"
fill="#000000" stroke="none">
<path d="M9885 20474 c-1569 -68 -2973 -433 -4310 -1119 -2782 -1427 -4770
-4054 -5375 -7102 -139 -704 -194 -1273 -194 -2013 0 -740 55 -1309 194 -2013
466 -2349 1759 -4471 3645 -5982 1476 -1183 3232 -1926 5115 -2164 438 -56
770 -75 1280 -75 510 0 842 19 1280 75 1883 238 3639 981 5115 2164 2089 1674
3434 4076 3765 6720 56 448 74 767 74 1275 0 508 -18 827 -74 1275 -235 1878
-981 3643 -2165 5120 -1673 2088 -4080 3436 -6720 3764 -408 51 -717 71 -1170
75 -209 2 -416 2 -460 0z m2530 -6079 c213 -19 435 -48 613 -81 1871 -343
3492 -1509 4417 -3179 395 -712 648 -1493 744 -2295 36 -300 45 -452 45 -780
0 -407 -26 -722 -89 -1090 -276 -1594 -1151 -3019 -2455 -3999 -875 -658
-1914 -1080 -2995 -1216 -315 -39 -475 -49 -815 -49 -340 0 -500 10 -815 49
-1692 213 -3236 1113 -4270 2490 -672 895 -1093 1939 -1224 3035 -36 300 -45
452 -45 780 0 328 9 480 45 780 275 2292 1805 4273 3964 5130 668 265 1309
401 2095 444 133 7 621 -4 785 -19z"/>
<path d="M12335 11034 c-16 -2 -79 -9 -140 -15 -1134 -112 -2203 -756 -2851
-1719 -447 -663 -674 -1408 -674 -2210 0 -831 242 -1595 723 -2282 431 -614
1077 -1122 1777 -1395 478 -187 934 -273 1450 -273 832 0 1595 242 2282 723
615 431 1122 1077 1395 1777 330 843 364 1769 97 2630 -185 595 -528 1161
-978 1612 -504 505 -1148 872 -1831 1042 -329 82 -536 107 -915 111 -168 2
-318 1 -335 -1z"/>
</g>
</svg>
